<?xml version="1.0" standalone="no"?>
<!DOCTYPE svg PUBLIC "-//W3C//DTD SVG 20010904//EN"
 "http://www.w3.org/TR/2001/REC-SVG-20010904/DTD/svg10.dtd">
<svg version="1.0" xmlns="http://www.w3.org/2000/svg"
 width="466.000000pt" height="466.000000pt" viewBox="0 0 466.000000 466.000000"
 preserveAspectRatio="xMidYMid meet">
<metadata>
Created by potrace 1.14, written by Peter Selinger 2001-2017
</metadata>
<g transform="translate(0.000000,466.000000) scale(0.100000,-0.100000)"
fill="#000000" stroke="none">
<path d="M1398 4120 c-90 -4 -111 -8 -137 -27 -17 -13 -33 -23 -36 -23 -4 0
-12 -6 -19 -12 -8 -7 -24 -20 -36 -28 -13 -8 -30 -23 -39 -32 -8 -10 -19 -18
-22 -18 -4 0 -20 -12 -36 -27 -16 -16 -57 -53 -92 -83 -64 -55 -75 -64 -167
-151 -49 -46 -215 -223 -271 -289 -58 -68 -186 -246 -226 -315 -23 -38 -44
-72 -47 -75 -4 -3 -28 -45 -55 -95 -26 -49 -52 -91 -56 -93 -5 -2 -9 -17 -9
-33 0 -16 -4 -29 -8 -29 -16 0 -75 -196 -89 -295 -9 -65 -10 -209 -1 -260 13
-71 35 -170 38 -170 1 0 4 -11 6 -25 3 -14 9 -27 14 -28 6 -2 8 -7 6 -11 -3
-4 15 -48 39 -99 24 -51 44 -95 44 -99 -1 -3 5 -9 12 -14 7 -4 14 -14 15 -23
1 -8 16 -36 33 -61 17 -25 31 -48 31 -51 0 -3 9 -14 20 -26 11 -12 20 -28 20
-35 0 -8 5 -11 10 -8 6 3 10 1 10 -5 0 -6 6 -18 13 -25 6 -8 21 -26 32 -41 11
-14 30 -37 42 -49 13 -13 23 -28 23 -34 0 -5 11 -18 25 -29 13 -11 21 -22 18
-26 -3 -3 1 -6 9 -6 9 0 19 -11 22 -25 4 -14 11 -23 16 -20 6 3 10 2 10 -4 0
-6 11 -21 25 -35 14 -14 25 -30 25 -36 0 -5 3 -10 8 -10 4 0 16 -13 27 -29 10
-16 23 -27 27 -25 4 3 8 1 8 -4 0 -12 119 -132 132 -132 5 0 6 -4 3 -10 -3 -5
-2 -10 3 -10 5 0 27 -17 50 -38 125 -114 165 -147 176 -144 6 2 8 1 4 -3 -7
-7 15 -35 27 -35 3 0 18 -12 34 -28 44 -42 96 -84 128 -101 15 -9 32 -22 36
-29 5 -7 12 -10 17 -7 4 3 11 -2 14 -11 3 -8 10 -13 15 -10 5 3 12 -1 15 -10
3 -8 10 -13 15 -10 5 3 12 -1 15 -10 3 -8 11 -12 16 -9 6 4 18 1 26 -6 11 -9
97 -12 355 -11 188 1 346 -1 351 -4 16 -10 78 -12 72 -3 -2 4 8 4 24 0 16 -5
36 -5 45 1 11 6 17 5 17 -1 0 -10 25 -9 35 1 3 3 21 2 40 -2 21 -5 38 -3 46 4
6 6 9 6 6 1 -3 -6 15 -11 46 -11 29 -1 79 -2 112 -3 94 -3 673 9 742 15 48 4
61 9 56 20 -3 8 3 17 13 21 11 4 33 20 49 35 17 15 36 28 43 28 6 0 12 5 12
10 0 6 5 10 10 10 6 0 23 11 38 25 15 14 45 38 68 52 23 14 49 39 60 54 10 15
20 26 22 24 2 -2 28 21 58 51 30 30 58 54 61 54 9 0 178 175 223 230 19 24 44
53 56 64 11 12 29 33 38 48 10 15 23 25 29 21 6 -3 7 -1 3 6 -4 6 0 14 8 17 9
3 16 10 16 15 0 9 20 36 60 78 14 15 34 44 45 64 11 20 25 37 32 37 7 0 13 8
13 18 0 10 9 28 19 39 11 12 17 24 14 27 -4 3 -1 6 5 6 7 0 12 7 12 15 0 8 5
15 10 15 6 0 10 7 10 15 0 8 5 15 12 15 6 0 9 3 5 6 -3 4 5 23 18 43 14 19 25
41 25 48 0 7 4 13 10 13 5 0 9 3 8 8 -1 4 8 29 20 56 12 27 22 55 22 62 0 8 5
14 12 14 6 0 8 3 5 7 -4 3 -2 12 4 20 6 7 8 13 5 13 -4 0 -1 10 5 22 12 22 22
56 39 133 33 146 36 182 25 330 -2 28 -4 50 -5 50 -2 0 -4 9 -6 20 -6 42 -15
79 -22 89 -3 6 -8 16 -9 21 -1 6 -4 17 -6 25 -2 8 -12 35 -23 60 -10 25 -18
48 -16 53 1 4 -2 7 -6 7 -4 0 -9 14 -10 32 -2 18 -6 35 -10 38 -4 3 -29 48
-56 100 -98 192 -241 409 -341 517 -205 222 -312 326 -500 486 -51 43 -170
124 -210 143 l-51 24 -909 2 c-501 2 -958 1 -1017 -2z"/>
</g>
</svg>
